<svg width="129" height="38" viewBox="0 0 129 38" fill="none" xmlns="http://www.w3.org/2000/svg">
<g clip-path="url(#clip0_1327_3336)">
<path d="M0.878906 28.1824L0.878909 9.39453L10.2728 14.6134V23.0157L17.788 27.243L25.3031 23.0157V14.6134L34.6971 9.39453V28.1824L17.788 37.5763L0.878906 28.1824Z" fill="#192657"/>
<path fill-rule="evenodd" clip-rule="evenodd" d="M4.69698 12.0034L0 9.39394L16.9091 0L33.8182 9.39394L29.1212 12.0034V25.8333L16.9091 32.8788L4.69697 25.8333L4.69698 12.0034ZM28.6124 12.2861L24.4242 14.6128V14.5606L16.9091 10.3333L9.39392 14.5606V14.6128L5.20581 12.2861V25.5443L16.9091 32.2962L28.6124 25.5443V12.2861Z" fill="url(#paint0_linear_1327_3336)"/>
<path d="M53.42 17.36V11.8H56.24V27H53.48V25.66C52.6 26.7267 51.4733 27.26 50.1 27.26C48.54 27.26 47.2533 26.72 46.24 25.64C45.2133 24.5333 44.7 23.1667 44.7 21.54C44.7 19.9267 45.2133 18.5667 46.24 17.46C47.28 16.3667 48.5667 15.82 50.1 15.82C51.4067 15.82 52.5133 16.3333 53.42 17.36ZM53.56 21.54C53.56 20.66 53.28 19.92 52.72 19.32C52.16 18.7067 51.4333 18.4 50.54 18.4C49.6467 18.4 48.9133 18.7067 48.34 19.32C47.78 19.92 47.5 20.66 47.5 21.54C47.5 22.4333 47.78 23.1867 48.34 23.8C48.9133 24.4 49.6467 24.7 50.54 24.7C51.4333 24.7 52.16 24.4 52.72 23.8C53.28 23.1867 53.56 22.4333 53.56 21.54ZM69.3756 21.3C69.3756 21.6333 69.3423 22.0467 69.2756 22.54H61.0956C61.4956 24.0867 62.5556 24.86 64.2756 24.86C65.5423 24.86 66.7156 24.4933 67.7956 23.76L68.9156 25.74C67.529 26.74 65.9423 27.24 64.1556 27.24C62.249 27.24 60.7823 26.6867 59.7556 25.58C58.7423 24.4867 58.2356 23.14 58.2356 21.54C58.2356 19.8733 58.7623 18.5067 59.8156 17.44C60.869 16.36 62.2356 15.82 63.9156 15.82C65.5023 15.82 66.809 16.3133 67.8356 17.3C68.8623 18.2867 69.3756 19.62 69.3756 21.3ZM63.9156 18.16C63.209 18.16 62.6023 18.3667 62.0956 18.78C61.6023 19.18 61.269 19.7333 61.0956 20.44H66.6356C66.5023 19.7333 66.1956 19.18 65.7156 18.78C65.2356 18.3667 64.6356 18.16 63.9156 18.16ZM75.4883 23.16L78.1683 16.1H81.2683L76.5283 26.98H74.3683L69.6483 16.1H72.7483L75.4883 23.16ZM82.4961 27.32C82.0294 27.32 81.6361 27.1667 81.3161 26.86C80.9961 26.54 80.8361 26.1467 80.8361 25.68C80.8361 25.2267 80.9961 24.8467 81.3161 24.54C81.6361 24.2333 82.0294 24.08 82.4961 24.08C82.9361 24.08 83.3094 24.2333 83.6161 24.54C83.9361 24.8467 84.0961 25.2267 84.0961 25.68C84.0961 26.1467 83.9361 26.54 83.6161 26.86C83.3094 27.1667 82.9361 27.32 82.4961 27.32ZM89.5508 23.16L92.2308 16.1H95.3308L90.5908 26.98H88.4308L83.7108 16.1H86.8108L89.5508 23.16ZM99.9448 13.14C99.9448 13.6333 99.7782 14.0467 99.4448 14.38C99.1115 14.7133 98.6982 14.88 98.2048 14.88C97.7115 14.88 97.2982 14.7133 96.9648 14.38C96.6315 14.0467 96.4648 13.6333 96.4648 13.14C96.4648 12.6467 96.6315 12.24 96.9648 11.92C97.2982 11.5867 97.7115 11.42 98.2048 11.42C98.6982 11.42 99.1115 11.5867 99.4448 11.92C99.7782 12.24 99.9448 12.6467 99.9448 13.14ZM99.6048 16.1V27H96.7848V16.1H99.6048ZM104.936 27H102.116V16.1H104.816V17.56C105.469 16.3867 106.469 15.8 107.816 15.8C108.256 15.8 108.696 15.88 109.136 16.04L108.896 18.74C108.416 18.5933 107.983 18.52 107.596 18.52C106.769 18.52 106.116 18.8 105.636 19.36C105.169 19.9067 104.936 20.7267 104.936 21.82V27ZM118.463 17.4V16.1H121.143V27H118.463V25.74C117.529 26.7533 116.369 27.26 114.983 27.26C113.409 27.26 112.116 26.7133 111.103 25.62C110.089 24.5267 109.583 23.1533 109.583 21.5C109.583 19.86 110.096 18.5067 111.123 17.44C112.149 16.36 113.436 15.82 114.983 15.82C116.343 15.82 117.503 16.3467 118.463 17.4ZM118.503 21.54C118.503 20.6867 118.209 19.9467 117.623 19.32C117.049 18.7067 116.323 18.4 115.443 18.4C114.549 18.4 113.816 18.7067 113.243 19.32C112.683 19.9333 112.403 20.6733 112.403 21.54C112.403 22.42 112.689 23.1667 113.263 23.78C113.836 24.3933 114.563 24.7 115.443 24.7C116.323 24.7 117.049 24.3933 117.623 23.78C118.209 23.1533 118.503 22.4067 118.503 21.54ZM127.298 13.14C127.298 13.6333 127.132 14.0467 126.798 14.38C126.465 14.7133 126.052 14.88 125.558 14.88C125.065 14.88 124.652 14.7133 124.318 14.38C123.985 14.0467 123.818 13.6333 123.818 13.14C123.818 12.6467 123.985 12.24 124.318 11.92C124.652 11.5867 125.065 11.42 125.558 11.42C126.052 11.42 126.465 11.5867 126.798 11.92C127.132 12.24 127.298 12.6467 127.298 13.14ZM122.798 31.64C121.718 31.64 120.892 31.4533 120.318 31.08L120.838 28.84C121.438 29.0533 121.938 29.16 122.338 29.16C123.552 29.16 124.158 28.4467 124.158 27.02V16.1H126.978V27.16C126.978 28.6 126.598 29.7067 125.838 30.48C125.092 31.2533 124.078 31.64 122.798 31.64Z" fill="#192657"/>
</g>
<defs>
<linearGradient id="paint0_linear_1327_3336" x1="4.69697" y1="7.30638" x2="30.0606" y2="7.30639" gradientUnits="userSpaceOnUse">
<stop stop-color="#64C2DB"/>
<stop offset="0.307292" stop-color="#7476ED"/>
<stop offset="0.604167" stop-color="#C994DF"/>
<stop offset="1" stop-color="#E56F8C"/>
</linearGradient>
<clipPath id="clip0_1327_3336">
<rect width="129" height="38" fill="white"/>
</clipPath>
</defs>
</svg>
